<svg xmlns="http://www.w3.org/2000/svg" width="48" height="48" viewBox="0 0 48 48" fill="none"><path d="M7.58027 19.456C9.95427 19.456 11.8823 17.526 11.8823 15.154C11.8823 12.782 9.95227 10.854 7.58027 10.854C5.20827 10.854 3.28027 12.784 3.28027 15.154C3.28027 17.526 5.20827 19.456 7.58027 19.456ZM7.58027 12.454C9.07027 12.454 10.2823 13.664 10.2823 15.154C10.2823 16.644 9.07227 17.856 7.58027 17.856C6.09227 17.856 4.88027 16.646 4.88027 15.154C4.88027 13.664 6.09227 12.454 7.58027 12.454Z" fill="#CB8E4F"></path><path d="M11.1182 30.2339H4.04219C3.60019 30.2339 3.24219 30.5939 3.24219 31.0339C3.24219 31.4739 3.60219 31.8339 4.04219 31.8339H11.1182C11.5602 31.8339 11.9182 31.4739 11.9182 31.0339C11.9182 30.5939 11.5602 30.2339 11.1182 30.2339Z" fill="#CB8E4F"></path><path d="M11.1182 34.0619H4.04219C3.60019 34.0619 3.24219 34.4219 3.24219 34.8619C3.24219 35.3019 3.60219 35.6619 4.04219 35.6619H11.1182C11.5602 35.6619 11.9182 35.3019 11.9182 34.8619C11.9182 34.4219 11.5602 34.0619 11.1182 34.0619Z" fill="#CB8E4F"></path><path d="M20.988 19.456C23.362 19.456 25.29 17.526 25.29 15.154C25.29 12.782 23.36 10.854 20.988 10.854C18.616 10.854 16.688 12.784 16.688 15.154C16.688 17.526 18.616 19.456 20.988 19.456ZM20.988 12.454C22.478 12.454 23.69 13.664 23.69 15.154C23.69 16.644 22.48 17.856 20.988 17.856C19.5 17.856 18.288 16.646 18.288 15.154C18.288 13.664 19.5 12.454 20.988 12.454Z" fill="#CB8E4F"></path><path d="M24.5284 30.2339H17.4504C17.0084 30.2339 16.6504 30.5939 16.6504 31.0339C16.6504 31.4739 17.0104 31.8339 17.4504 31.8339H24.5264C24.9684 31.8339 25.3264 31.4739 25.3264 31.0339C25.3264 30.5939 24.9684 30.2339 24.5284 30.2339Z" fill="#CB8E4F"></path><path d="M24.5284 34.0619H17.4504C17.0084 34.0619 16.6504 34.4219 16.6504 34.8619C16.6504 35.3019 17.0104 35.6619 17.4504 35.6619H24.5264C24.9684 35.6619 25.3264 35.3019 25.3264 34.8619C25.3264 34.4219 24.9684 34.0619 24.5284 34.0619Z" fill="#CB8E4F"></path><path d="M45.5422 26.2219L43.8242 18.2639C43.1102 15.0039 42.3962 11.7419 41.7442 8.46795C41.5982 7.73795 41.2942 6.69595 40.3502 6.07795C39.8922 5.77595 39.3482 5.62195 38.7382 5.62195C38.3282 5.62195 37.9622 5.68995 37.7362 5.73995C37.7242 5.74395 37.5222 5.78795 37.5102 5.78995C34.7642 6.46595 32.0202 7.02595 29.4362 7.54395C29.2122 7.59195 28.7122 7.72395 28.2082 8.02395C28.0782 7.69995 27.9102 7.38195 27.6322 7.09995C26.7662 6.21995 25.5382 6.21995 25.1362 6.21995C25.1282 6.21995 24.9262 6.22195 24.9202 6.22395C22.1982 6.29995 19.5542 6.27795 16.6522 6.23195C16.2762 6.23195 15.1342 6.23195 14.3082 7.06595C14.2862 7.08795 14.2802 7.12395 14.2582 7.14595C14.2442 7.13195 14.2382 7.11395 14.2242 7.09995C13.3582 6.21995 12.1302 6.21995 11.7282 6.21995C11.7202 6.21995 11.5182 6.22195 11.5122 6.22395C8.78618 6.29995 6.14618 6.27795 3.24418 6.23195C2.86818 6.23195 1.72618 6.23195 0.900183 7.06595C0.352183 7.61795 0.0741826 8.38995 0.0761826 9.36395C0.0981826 19.1359 0.0941826 28.9099 0.0801826 38.6839C0.0781826 39.6399 0.352183 40.3979 0.888183 40.9359C1.43018 41.4839 2.19218 41.7519 3.22818 41.7519C6.06218 41.7099 8.82218 41.6919 11.7862 41.7579C11.7902 41.7579 11.8662 41.7599 11.8702 41.7599C12.2482 41.7599 13.4022 41.7599 14.2382 40.9119C14.2482 40.9019 14.2522 40.8899 14.2622 40.8799C14.2782 40.8959 14.2822 40.9199 14.2962 40.9359C14.8382 41.4839 15.6002 41.7519 16.6342 41.7519C19.4702 41.7099 22.2222 41.6919 25.2002 41.7579C25.2042 41.7579 25.2742 41.7599 25.2782 41.7599C25.6562 41.7599 26.8102 41.7599 27.6462 40.9099C28.4142 40.1339 28.4942 39.0959 28.4882 38.3799C28.4462 34.8839 28.4502 31.3879 28.4582 27.8919L28.4642 23.9719L28.4542 19.4019C28.4522 18.9479 28.4602 18.4919 28.4602 18.0379C30.0422 25.3339 31.6242 32.6299 33.1902 39.9299C33.3902 40.8639 33.8162 41.5479 34.4542 41.9599C34.8802 42.2379 35.3822 42.3779 35.9442 42.3779C36.2362 42.3779 36.5502 42.3419 36.9122 42.2639C39.3422 41.7039 42.2262 41.0519 45.3642 40.4459C45.7362 40.3659 46.8622 40.1219 47.5002 39.1179C48.0862 38.1959 47.9442 37.1639 47.7862 36.4699C47.0082 33.0599 46.2762 29.6399 45.5422 26.2219ZM13.4542 23.9719L13.4482 27.8879C13.4422 31.3919 13.4362 34.8959 13.4782 38.3979C13.4842 38.8899 13.4422 39.4399 13.1002 39.7839C12.8462 40.0439 12.4682 40.1579 11.8722 40.1579H11.7602C10.4122 40.1259 9.06218 40.1159 7.71418 40.1159C6.21218 40.1159 4.71018 40.1299 3.21418 40.1519C2.45218 40.1519 2.17218 39.9579 2.02418 39.8079C1.79218 39.5779 1.68018 39.2099 1.68218 38.6879C1.69618 28.9099 1.69818 19.1339 1.67818 9.35995C1.67618 8.63995 1.88018 8.34995 2.03618 8.19595C2.35218 7.87595 2.84818 7.83395 3.23418 7.83395C6.13618 7.87595 8.61618 7.90195 11.7302 7.82195C12.1782 7.82195 12.7342 7.86595 13.0862 8.22195C13.4542 8.59795 13.4942 9.21395 13.4862 9.70595C13.4322 12.9479 13.4402 16.1859 13.4482 19.4219L13.4542 23.9719ZM26.8642 23.9719L26.8582 27.8879C26.8502 31.3919 26.8462 34.8959 26.8882 38.3979C26.8942 38.8899 26.8522 39.4399 26.5102 39.7839C26.2562 40.0439 25.8782 40.1579 25.2822 40.1579H25.1682C23.8202 40.1259 22.4722 40.1159 21.1242 40.1159C19.6222 40.1159 18.1182 40.1299 16.6242 40.1519C15.8622 40.1519 15.5822 39.9579 15.4342 39.8079C15.2022 39.5779 15.0902 39.2099 15.0922 38.6879C15.1042 28.9099 15.1082 19.1339 15.0862 9.35995C15.0842 8.63995 15.2882 8.34995 15.4442 8.19595C15.7602 7.87595 16.2562 7.83395 16.6402 7.83395C19.5422 7.87595 22.0222 7.90195 25.1362 7.82195C25.5842 7.82195 26.1402 7.86595 26.4922 8.22195C26.8662 8.60195 26.8982 9.25195 26.8902 9.70595C26.8402 12.9399 26.8482 16.1719 26.8542 19.4059L26.8642 23.9719ZM46.1482 38.2599C45.9002 38.6499 45.4182 38.7999 44.9162 38.9059C41.9142 39.4839 39.0022 40.1399 36.5602 40.7039C35.9942 40.8219 35.6122 40.8039 35.3242 40.6179C35.0482 40.4399 34.8642 40.1059 34.7542 39.5939C32.7042 30.0359 30.6422 20.4759 28.5602 10.9259C28.4062 10.2259 28.5442 9.89795 28.6622 9.71595C28.8542 9.41795 29.1962 9.22995 29.7602 9.10995C32.3522 8.58795 35.1142 8.02395 37.8582 7.34995C37.8622 7.34795 38.0582 7.30595 38.0622 7.30395C38.2302 7.26795 38.4822 7.21995 38.7402 7.21995C39.0362 7.21995 39.2782 7.28195 39.4722 7.41395C39.9182 7.70595 40.0882 8.33195 40.1762 8.77995C40.8302 12.0659 41.5482 15.3359 42.2622 18.6079L43.9802 26.5599C44.7142 29.9859 45.4462 33.4099 46.2282 36.8279C46.3342 37.3039 46.4102 37.8499 46.1482 38.2599Z" fill="#CB8E4F"></path><path d="M36.462 19.5499C38.778 19.0499 40.256 16.7579 39.756 14.4359C39.266 12.1739 36.916 10.6559 34.644 11.1439C33.522 11.3839 32.562 12.0499 31.938 13.0179C31.314 13.9819 31.104 15.1339 31.346 16.2559C31.772 18.2199 33.54 19.6479 35.55 19.6479C35.858 19.6479 36.162 19.6159 36.462 19.5499ZM32.912 15.9179C32.6 14.4599 33.528 13.0219 34.984 12.7079C35.172 12.6659 35.362 12.6479 35.554 12.6479C36.816 12.6479 37.928 13.5439 38.194 14.7759C38.506 16.2339 37.576 17.6739 36.122 17.9879C34.7 18.2959 33.22 17.3399 32.912 15.9179Z" fill="#CB8E4F"></path><path d="M42.532 30.906C42.966 30.814 43.24 30.388 43.146 29.956C43.054 29.526 42.634 29.238 42.196 29.342L35.278 30.836C34.844 30.928 34.57 31.354 34.664 31.786C34.744 32.162 35.076 32.418 35.446 32.418C35.5 32.418 35.558 32.412 35.614 32.398L42.532 30.906Z" fill="#CB8E4F"></path><path d="M43.004 33.0859L36.088 34.5779C35.654 34.6699 35.38 35.0959 35.474 35.5279C35.554 35.9039 35.886 36.1599 36.256 36.1599C36.31 36.1599 36.368 36.1539 36.424 36.1399L43.34 34.6479C43.774 34.5559 44.048 34.1299 43.954 33.6979C43.862 33.2699 43.444 32.9759 43.004 33.0859Z" fill="#CB8E4F"></path></svg>