<svg xmlns="http://www.w3.org/2000/svg" width="58" height="58" viewBox="0 0 58 58" fill="none"><circle cx="29" cy="29" r="29" fill="#FFEDEE"></circle><g clip-path="url(#clip0_10_513)"><path d="M29.5844 34.3219V25.9273C29.5844 25.4637 29.2086 25.0879 28.745 25.0879C28.2813 25.0879 27.9055 25.4637 27.9055 25.9273V34.3219C27.9055 34.7855 28.2813 35.1613 28.745 35.1613C29.2086 35.1613 29.5844 34.7855 29.5844 34.3219Z" fill="#CF2025"></path><path d="M36.9719 18.3721H33.7819C32.0912 18.3721 30.4824 19.0985 29.3678 20.3652C29.0358 20.7424 28.4599 20.7485 28.1226 20.3652C27.0081 19.0985 25.3992 18.3721 23.7085 18.3721H20.5186C19.13 18.3721 18.0002 19.5018 18.0002 20.8904V34.3217C18.0002 35.7103 19.13 36.84 20.5186 36.84H23.7085C24.9169 36.84 26.0663 37.3588 26.8622 38.2633C27.8613 39.3987 29.6226 39.4061 30.6282 38.2633C31.4241 37.3588 32.5736 36.84 33.7819 36.84H36.9719C38.3605 36.84 39.4902 35.7103 39.4902 34.3217V20.8904C39.4902 19.5018 38.3605 18.3721 36.9719 18.3721ZM37.8113 34.3217C37.8113 34.7845 37.4347 35.1611 36.9719 35.1611H33.7819C32.0912 35.1611 30.4824 35.8876 29.3678 37.1542C29.0358 37.5316 28.4599 37.5375 28.1227 37.1542C27.0081 35.8876 25.3992 35.1611 23.7085 35.1611H20.5186C20.0557 35.1611 19.6791 34.7845 19.6791 34.3217V20.8904C19.6791 20.4276 20.0557 20.051 20.5186 20.051H23.7085C24.9169 20.051 26.0663 20.5698 26.8622 21.4743C27.8611 22.6095 29.6225 22.6173 30.6282 21.4743C31.4241 20.5698 32.5736 20.051 33.7819 20.051H36.9719C37.4347 20.051 37.8113 20.4276 37.8113 20.8904V34.3217Z" fill="#CF2025"></path><path d="M35.2925 23.4092H33.6136C32.942 23.4092 32.2833 23.5212 31.6558 23.7421C31.2186 23.8961 30.9889 24.3754 31.1429 24.8127C31.2964 25.249 31.775 25.4801 32.2135 25.3257C32.6613 25.168 33.1324 25.0881 33.6135 25.0881H35.2924C35.7561 25.0881 36.1319 24.7123 36.1319 24.2486C36.1319 23.785 35.7561 23.4092 35.2925 23.4092Z" fill="#CF2025"></path><path d="M25.8338 23.7421C25.2063 23.5212 24.5476 23.4092 23.876 23.4092H22.1971C21.7335 23.4092 21.3577 23.785 21.3577 24.2486C21.3577 24.7123 21.7335 25.0881 22.1971 25.0881H23.876C24.3572 25.0881 24.8283 25.168 25.2761 25.3257C25.715 25.4803 26.1933 25.2485 26.3467 24.8127C26.5007 24.3755 26.271 23.8961 25.8338 23.7421Z" fill="#CF2025"></path><path d="M35.2925 26.7666H33.6136C32.942 26.7666 32.2833 26.8786 31.6558 27.0996C31.2186 27.2535 30.9889 27.7329 31.1429 28.1702C31.2964 28.6064 31.775 28.8375 32.2135 28.6832C32.6613 28.5255 33.1324 28.4455 33.6135 28.4455H35.2924C35.7561 28.4455 36.1319 28.0697 36.1319 27.6061C36.1319 27.1424 35.7561 26.7666 35.2925 26.7666Z" fill="#CF2025"></path><path d="M25.8338 27.0996C25.2063 26.8786 24.5476 26.7666 23.876 26.7666H22.1971C21.7335 26.7666 21.3577 27.1424 21.3577 27.6061C21.3577 28.0697 21.7335 28.4455 22.1971 28.4455H23.876C24.3572 28.4455 24.8283 28.5255 25.2761 28.6832C25.715 28.8377 26.1933 28.6059 26.3467 28.1702C26.5007 27.7329 26.271 27.2536 25.8338 27.0996Z" fill="#CF2025"></path><path d="M35.2925 30.124H33.6136C32.942 30.124 32.2833 30.236 31.6558 30.457C31.2186 30.6109 30.9889 31.0903 31.1429 31.5276C31.2964 31.9638 31.775 32.195 32.2135 32.0406C32.6613 31.8829 33.1324 31.8029 33.6135 31.8029H35.2924C35.7561 31.8029 36.1319 31.4271 36.1319 30.9635C36.1319 30.4998 35.7561 30.124 35.2925 30.124Z" fill="#CF2025"></path><path d="M25.8338 30.457C25.2063 30.236 24.5476 30.124 23.876 30.124H22.1971C21.7335 30.124 21.3577 30.4998 21.3577 30.9635C21.3577 31.4271 21.7335 31.8029 22.1971 31.8029H23.876C24.3572 31.8029 24.8283 31.8829 25.2761 32.0406C25.715 32.1951 26.1933 31.9633 26.3467 31.5276C26.5007 31.0903 26.271 30.611 25.8338 30.457Z" fill="#CF2025"></path></g><defs><clipPath id="clip0_10_513"><rect width="21.49" height="21.49" fill="white" transform="translate(18 18)"></rect></clipPath></defs></svg>